<svg width="1098" height="1098" xmlns="http://www.w3.org/2000/svg" xmlns:xlink="http://www.w3.org/1999/xlink" overflow="hidden"><defs><clipPath id="clip0"><rect x="1059" y="450" width="1098" height="1098"/></clipPath></defs><g clip-path="url(#clip0)" transform="translate(-1059 -450)"><path d="M1059 998.5C1059 695.572 1304.57 450 1607.5 450 1910.43 450 2156 695.572 2156 998.5 2156 1301.43 1910.43 1547 1607.5 1547 1304.57 1547 1059 1301.43 1059 998.5Z" fill="#C00000" fill-rule="evenodd"/><path d="M1067.95 1096.94C1013.82 798.876 1211.56 513.368 1509.62 459.235 1807.68 405.102 2093.19 602.844 2147.32 900.903 2201.45 1198.96 2003.71 1484.47 1705.65 1538.6 1599.28 1557.92 1489.58 1545.38 1390.32 1502.55L1607.63 998.919Z" fill="#222A35" fill-rule="evenodd"/><path d="M1298 999C1298 827.792 1436.79 689 1608 689 1779.21 689 1918 827.792 1918 999 1918 1170.21 1779.21 1309 1608 1309 1436.79 1309 1298 1170.21 1298 999Z" fill="#FFFFFF" fill-rule="evenodd"/></g></svg>