<?xml version="1.0" encoding="UTF-8" standalone="no"?>
<!-- Created with Inkscape (http://www.inkscape.org/) -->

<svg
   width="100mm"
   height="100mm"
   viewBox="0 0 100 100"
   version="1.1"
   id="svg1"
   xml:space="preserve"
   inkscape:version="1.3.2 (091e20e, 2023-11-25, custom)"
   sodipodi:docname="logo-no-bg.svg"
   xmlns:inkscape="http://www.inkscape.org/namespaces/inkscape"
   xmlns:sodipodi="http://sodipodi.sourceforge.net/DTD/sodipodi-0.dtd"
   xmlns="http://www.w3.org/2000/svg"
   xmlns:svg="http://www.w3.org/2000/svg"><sodipodi:namedview
     id="namedview1"
     pagecolor="#505050"
     bordercolor="#eeeeee"
     borderopacity="1"
     inkscape:showpageshadow="0"
     inkscape:pageopacity="0"
     inkscape:pagecheckerboard="0"
     inkscape:deskcolor="#505050"
     inkscape:document-units="mm"
     inkscape:zoom="2.8284271"
     inkscape:cx="165.46299"
     inkscape:cy="245.18928"
     inkscape:window-width="3840"
     inkscape:window-height="2054"
     inkscape:window-x="2549"
     inkscape:window-y="-11"
     inkscape:window-maximized="1"
     inkscape:current-layer="layer1" /><defs
     id="defs1"><inkscape:perspective
       sodipodi:type="inkscape:persp3d"
       inkscape:vp_x="5.3181822 : 62.071972 : 1"
       inkscape:vp_y="0 : 913.7566 : 0"
       inkscape:vp_z="215.31817 : 62.071972 : 1"
       inkscape:persp3d-origin="110.31817 : 16.841024 : 1"
       id="perspective17" /><filter
       inkscape:collect="always"
       style="color-interpolation-filters:sRGB"
       id="filter1"
       x="-0.082736667"
       y="-0.071651886"
       width="1.1654733"
       height="1.1433038"><feGaussianBlur
         inkscape:collect="always"
         stdDeviation="2.5850959"
         id="feGaussianBlur1" /></filter></defs><g
     inkscape:label="Layer 1"
     inkscape:groupmode="layer"
     id="layer1"><path
       style="display:inline;fill:#000000;fill-opacity:1;stroke:#ff0000;stroke-width:0;stroke-linecap:butt;stroke-linejoin:miter;stroke-dasharray:none;stroke-dashoffset:0;stroke-opacity:0;paint-order:stroke markers fill;filter:url(#filter1)"
       d="M 50.000044,6.7055336 12.506211,28.352789 V 71.647306 L 50.000044,93.294045 87.493884,71.647306 V 28.352789 Z"
       id="path127-7"
       transform="matrix(1.010128,0,0,1.010128,-0.50640676,-0.5063809)" /><g
       id="g126"
       style="display:none"
       transform="matrix(1.0101283,0,0,1.0101283,-0.50641543,-0.50641802)"><path
         d="M 50.000049,6.7055339 12.506213,28.352791 50.000049,50.000049 87.493884,28.352791 Z"
         style="opacity:0.928571;fill:#06143f;stroke-width:0.0317817"
         id="path124" /><path
         d="M 50.000049,93.294047 V 50.000049 L 12.506213,28.352791 v 43.294515 z"
         style="opacity:0.928571;fill:#06143f;stroke-width:0.0317817"
         id="path126" /><path
         d="M 87.493884,28.352791 50.000049,50.000049 V 93.294047 L 87.493884,71.647306 Z"
         style="opacity:0.928571;fill:#06143f;stroke-width:0.0317817"
         id="path125" /></g><path
       style="display:inline;fill:#000c31;fill-opacity:1;stroke:#ff0000;stroke-width:0;paint-order:stroke markers fill"
       d="m 31.063254,17.200317 -16.569689,9.566592 c 0,0 2.367099,-1.366654 0,0 -2.367098,1.366658 -2.367098,4.09997 -2.367098,4.09997 l 2e-6,38.266375 c 0,0 10e-7,-2.733315 0,0 -2e-6,2.733316 2.367097,4.099937 2.367097,4.099937 L 47.63294,92.365922 c 0,0 -2.367101,-1.366627 0,0 2.367099,1.366626 4.734197,0 4.734197,0 l 33.13938,-19.132731 c 0,0 -2.367105,1.366622 0,0 2.3671,-1.366621 2.367097,-4.099937 2.367097,-4.099937 V 30.866879 c 0,0 -3e-6,2.733311 0,0 3e-6,-2.733312 -2.367097,-4.09997 -2.367097,-4.09997 L 52.367137,7.6337232 c 0,0 2.367094,1.3666563 0,0 -2.367096,-1.3666562 -4.734197,-1.2e-6 -4.734197,-1.2e-6 z"
       id="path37" /><path
       style="display:inline;opacity:1;fill:#4d94e2;fill-opacity:1;stroke:none;stroke-width:0.0321037;stroke-dasharray:none;stroke-dashoffset:0;stroke-opacity:0"
       d="M 25.572629,30.73199 49.999996,16.628847 74.427354,30.73199 80.064436,27.477422 49.999996,10.119706 19.935555,27.477422 Z"
       id="path77" /><path
       style="opacity:1;fill:#fa5333;fill-opacity:1;stroke:none;stroke-width:0.0321037;stroke-dasharray:none;stroke-dashoffset:0;stroke-opacity:0"
       d="m 23.67321,67.803447 c 0,-3.424096 2.965354,-1.712035 2.965354,-1.712035 0,0 -2.965354,-1.712061 0,0 2.965355,1.712035 2.965355,5.136132 2.965355,5.136132 0,0 0,-3.424097 0,0 0,3.424099 -2.965355,1.712046 -2.965355,1.712046 0,0 2.965355,1.712053 0,0 C 23.67321,71.227544 23.67321,67.803447 23.67321,67.803447 Z"
       id="path93" /><path
       style="opacity:1;fill:#fab600;fill-opacity:1;stroke:none;stroke-width:0.0321037;stroke-dasharray:none;stroke-dashoffset:0;stroke-opacity:0"
       d="m 23.67321,55.041628 c 0,-3.424096 2.965354,-1.712043 2.965354,-1.712043 0,0 -2.965354,-1.712053 0,0 2.965355,1.712043 2.965355,5.136141 2.965355,5.136141 0,0 0,-3.424098 0,0 0,3.424097 -2.965355,1.712043 -2.965355,1.712043 0,0 2.965355,1.712054 0,0 C 23.67321,58.465726 23.67321,55.041628 23.67321,55.041628 Z"
       id="path93-6" /><path
       style="opacity:1;fill:#fa5333;fill-opacity:1;stroke:none;stroke-width:0.0321037;stroke-dasharray:none;stroke-dashoffset:0;stroke-opacity:0"
       d="m 16.027099,63.105374 c 0,-3.424097 2.965345,-1.712035 2.965345,-1.712035 0,0 -2.965345,-1.712062 0,0 2.965345,1.712035 2.965345,5.13614 2.965345,5.13614 0,0 0,-3.424105 0,0 0,3.424088 -2.965345,1.712046 -2.965345,1.712046 0,0 2.965345,1.712042 0,0 -2.965345,-1.712046 -2.965345,-5.136151 -2.965345,-5.136151 z"
       id="path93-1" /><path
       style="opacity:1;fill:#fab600;fill-opacity:1;stroke:none;stroke-width:0.0321037;stroke-dasharray:none;stroke-dashoffset:0;stroke-opacity:0"
       d="m 16.027099,50.343553 c 0,-3.424096 2.965354,-1.712043 2.965354,-1.712043 0,0 -2.965354,-1.712053 0,0 2.965336,1.712043 2.965336,5.136141 2.965336,5.136141 0,0 0,-3.424098 0,0 0,3.424098 -2.965336,1.712053 -2.965336,1.712053 0,0 2.965336,1.712045 0,0 -2.965354,-1.712053 -2.965354,-5.136151 -2.965354,-5.136151 z"
       id="path93-6-3" /><path
       style="opacity:1;fill:#fab600;fill-opacity:1;stroke:none;stroke-width:0.0321037;stroke-dasharray:none;stroke-dashoffset:0;stroke-opacity:0"
       d="m 31.319331,59.739702 c 0,-3.424087 2.965345,-1.712043 2.965345,-1.712043 0,0 -2.965345,-1.712044 0,0 2.965346,1.712043 2.965346,5.136141 2.965346,5.136141 0,0 0,-3.424098 0,0 0,3.424087 -2.965346,1.712035 -2.965346,1.712035 0,0 2.965346,1.712062 0,0 -2.965345,-1.712035 -2.965345,-5.136133 -2.965345,-5.136133 z"
       id="path93-6-2" /><path
       style="opacity:1;fill:#fa5333;fill-opacity:1;stroke:none;stroke-width:0.0321037;stroke-dasharray:none;stroke-dashoffset:0;stroke-opacity:0"
       d="m 31.319331,72.501513 c 0,-3.424079 2.965336,-1.712044 2.965336,-1.712044 0,0 -2.965336,-1.712043 0,0 2.965355,1.712044 2.965355,5.136142 2.965355,5.136142 0,0 0,-3.424098 0,0 0,3.424097 -2.965355,1.712051 -2.965355,1.712051 0,0 2.965355,1.712046 0,0 -2.965336,-1.712051 -2.965336,-5.136149 -2.965336,-5.136149 z"
       id="path93-6-2-5" /><path
       style="opacity:1;fill:#006fff;fill-opacity:1;stroke:none;stroke-width:0.0286425;stroke-dasharray:none;stroke-dashoffset:0;stroke-opacity:0"
       d="m 34.905961,29.754335 c -4.097034,2.365441 -4.097025,2.365441 0,4.730875 4.097026,2.365435 4.097026,2.365435 8.194059,0 4.097033,-2.365434 4.097033,-2.365442 0,-4.730875 -4.097033,-2.365442 -4.097025,-2.365442 -8.194059,0 z"
       id="path94" /><path
       style="opacity:1;fill:#ff0067;fill-opacity:1;stroke:none;stroke-width:0.0286425;stroke-dasharray:none;stroke-dashoffset:0;stroke-opacity:0"
       d="m 45.902972,23.07981 c -4.097034,2.365441 -4.097025,2.365441 0,4.730876 4.097025,2.365432 4.097025,2.365432 8.194058,0 4.097033,-2.365435 4.097033,-2.365443 0,-4.730876 -4.097033,-2.365439 -4.097026,-2.365439 -8.194058,0 z"
       id="path94-8" /><path
       style="opacity:1;fill:#006fff;fill-opacity:1;stroke:none;stroke-width:0.0286425;stroke-dasharray:none;stroke-dashoffset:0;stroke-opacity:0"
       d="m 56.89999,29.754344 c -4.097034,2.36544 -4.097027,2.36544 0,4.730866 4.097025,2.365435 4.097025,2.365435 8.194059,0 4.097032,-2.365426 4.097032,-2.365434 0,-4.730866 -4.097034,-2.365443 -4.097026,-2.365443 -8.194059,0 z"
       id="path94-8-9" /><path
       style="opacity:1;fill:#00c077;fill-opacity:1;stroke:none;stroke-width:0.0273012;stroke-linecap:butt;stroke-linejoin:miter;stroke-dasharray:none;stroke-dashoffset:0;stroke-opacity:1;paint-order:stroke markers fill"
       d="m 57.554658,53.093707 0.01983,18.596533 5.517668,-3.185544 V 49.896642 Z"
       id="path106-42"
       sodipodi:nodetypes="ccccc" /><path
       style="opacity:1;fill:#52a905;fill-opacity:1;stroke:none;stroke-width:0.0273012;stroke-linecap:butt;stroke-linejoin:miter;stroke-dasharray:none;stroke-dashoffset:0;stroke-opacity:1;paint-order:stroke markers fill"
       d="m 74.791947,42.728501 0.01985,18.596535 5.517668,-3.185535 V 39.531447 Z"
       id="path106-42-9-8"
       sodipodi:nodetypes="ccccc" /><path
       style="opacity:1;fill:#2da749;fill-opacity:1;stroke:none;stroke-width:0.0273012;stroke-linecap:butt;stroke-linejoin:miter;stroke-dasharray:none;stroke-dashoffset:0;stroke-opacity:1;paint-order:stroke markers fill"
       d="m 66.168862,47.916768 0.01983,18.609401 5.517678,-3.198356 V 44.719686 Z"
       id="path106-42-4-1"
       sodipodi:nodetypes="ccccc" /><path
       style="opacity:1;fill:#ff0067;fill-opacity:1;stroke:none;stroke-width:0.0286425;stroke-dasharray:none;stroke-dashoffset:0;stroke-opacity:0"
       d="m 45.902963,36.428893 c -4.097033,2.365441 -4.097025,2.365441 0,4.730867 4.097027,2.365434 4.097027,2.365434 8.194059,0 4.097033,-2.365426 4.097033,-2.365433 0,-4.730867 -4.097032,-2.36545 -4.097025,-2.36545 -8.194059,0 z"
       id="path94-8-9-1" /><path
       style="opacity:1;fill:#f79235;fill-opacity:1;stroke:none;stroke-width:0.0321037;stroke-linecap:butt;stroke-linejoin:round;stroke-dasharray:none;stroke-dashoffset:0;stroke-opacity:0;paint-order:stroke markers fill"
       d="m 18.529114,35.955776 c -2.858306,-1.650234 -2.858217,1.669099 -2.858217,1.669099 0,0 -8.9e-5,-3.319345 0,0 9.1e-5,3.319345 2.86425,4.972729 2.86425,4.972729 l 19.342435,11.11228 c 0,0 -2.814418,-1.664106 0,0 2.814418,1.664102 2.87296,4.98099 2.87296,4.98099 l -0.05861,22.271662 c 0,0 -9.1e-5,-3.319345 0,0 9.1e-5,3.319343 2.864251,4.972726 2.864251,4.972726 0,0 -2.86416,-1.653383 0.02448,0.01437 2.888657,1.667773 2.842427,-1.675224 2.842427,-1.675224 l 0.0526,-28.913488 c 0,0 0.0064,3.322484 0,0 -0.0064,-3.322485 -2.872962,-4.980992 -2.872962,-4.980992 z"
       id="path103" /><path
       style="opacity:1;fill:#52c077;fill-opacity:1;stroke:none;stroke-width:0.0285227;stroke-linecap:butt;stroke-linejoin:miter;stroke-dasharray:none;stroke-dashoffset:0;stroke-opacity:1;paint-order:stroke markers fill"
       d="m 57.569583,75.513763 -0.01493,4.935054 22.786687,-13.155881 -0.0082,-4.924514 z"
       id="path120"
       sodipodi:nodetypes="ccccc" /></g></svg>
