<?xml version="1.0" encoding="UTF-8" standalone="no"?>
<!-- Created with Inkscape (http://www.inkscape.org/) -->

<svg
   width="100mm"
   height="100mm"
   viewBox="0 0 100 100"
   version="1.1"
   id="svg1"
   xml:space="preserve"
   inkscape:version="1.3.2 (091e20e, 2023-11-25, custom)"
   sodipodi:docname="logo.svg"
   xmlns:inkscape="http://www.inkscape.org/namespaces/inkscape"
   xmlns:sodipodi="http://sodipodi.sourceforge.net/DTD/sodipodi-0.dtd"
   xmlns="http://www.w3.org/2000/svg"
   xmlns:svg="http://www.w3.org/2000/svg"><sodipodi:namedview
     id="namedview1"
     pagecolor="#505050"
     bordercolor="#eeeeee"
     borderopacity="1"
     inkscape:showpageshadow="0"
     inkscape:pageopacity="0"
     inkscape:pagecheckerboard="0"
     inkscape:deskcolor="#505050"
     inkscape:document-units="mm"
     inkscape:zoom="4"
     inkscape:cx="80.5"
     inkscape:cy="215.125"
     inkscape:window-width="3840"
     inkscape:window-height="2054"
     inkscape:window-x="2549"
     inkscape:window-y="-11"
     inkscape:window-maximized="1"
     inkscape:current-layer="layer1" /><defs
     id="defs1"><inkscape:perspective
       sodipodi:type="inkscape:persp3d"
       inkscape:vp_x="5.3181822 : 62.071972 : 1"
       inkscape:vp_y="0 : 913.7566 : 0"
       inkscape:vp_z="215.31817 : 62.071972 : 1"
       inkscape:persp3d-origin="110.31817 : 16.841024 : 1"
       id="perspective17" /><filter
       inkscape:collect="always"
       style="color-interpolation-filters:sRGB"
       id="filter1"
       x="-0.082736667"
       y="-0.071651886"
       width="1.1654733"
       height="1.1433038"><feGaussianBlur
         inkscape:collect="always"
         stdDeviation="2.5850959"
         id="feGaussianBlur1" /></filter><filter
       inkscape:collect="always"
       style="color-interpolation-filters:sRGB"
       id="filter2"
       x="-0.108"
       y="-0.108"
       width="1.216"
       height="1.216"><feGaussianBlur
         inkscape:collect="always"
         stdDeviation="4.5"
         id="feGaussianBlur2" /></filter></defs><rect
     style="opacity:1;mix-blend-mode:normal;fill:#000000;fill-opacity:1;stroke:#ff0000;stroke-width:0;stroke-linecap:butt;stroke-linejoin:miter;stroke-dasharray:none;stroke-dashoffset:0;stroke-opacity:1;paint-order:stroke markers fill;filter:url(#filter2)"
     id="rect124-3"
     width="100"
     height="100"
     x="1.4305115e-06"
     y="0"
     ry="50"
     transform="matrix(0.82236845,0,0,0.82236847,8.881578,8.8815766)" /><rect
     style="opacity:1;fill:#ffffff;fill-opacity:1;stroke:#ff0000;stroke-width:0;stroke-linecap:butt;stroke-linejoin:miter;stroke-dasharray:none;stroke-dashoffset:0;stroke-opacity:1;paint-order:stroke markers fill"
     id="rect124"
     width="88.835808"
     height="88.835808"
     x="5.5820951"
     y="5.5820951"
     ry="44.417904" /><g
     inkscape:label="Layer 1"
     inkscape:groupmode="layer"
     id="layer1"><path
       style="fill:#000000;fill-opacity:1;stroke:#ff0000;stroke-width:0;stroke-linecap:butt;stroke-linejoin:miter;stroke-dasharray:none;stroke-dashoffset:0;stroke-opacity:0;paint-order:stroke markers fill;filter:url(#filter1)"
       d="M 50.000044,6.7055336 12.506211,28.352789 V 71.647306 L 50.000044,93.294045 87.493884,71.647306 V 28.352789 Z"
       id="path127-7"
       transform="matrix(0.81636952,0,0,0.81636952,9.1815289,9.1815045)" /><g
       id="g126"
       style="display:none"><path
         d="M 50.000049,6.7055339 12.506213,28.352791 50.000049,50.000049 87.493884,28.352791 Z"
         style="opacity:0.928571;fill:#06143f;stroke-width:0.0317817"
         id="path124" /><path
         d="M 50.000049,93.294047 V 50.000049 L 12.506213,28.352791 v 43.294515 z"
         style="opacity:0.928571;fill:#06143f;stroke-width:0.0317817"
         id="path126" /><path
         d="M 87.493884,28.352791 50.000049,50.000049 V 93.294047 L 87.493884,71.647306 Z"
         style="opacity:0.928571;fill:#06143f;stroke-width:0.0317817"
         id="path125" /></g><path
       style="fill:#000c31;stroke:#ff0000;stroke-width:0;paint-order:stroke markers fill;fill-opacity:1"
       d="m 34.69563,23.491778 -13.391361,7.731568 c 0,0 1.913052,-1.104508 0,0 -1.913051,1.104512 -1.913051,3.313531 -1.913051,3.313531 l 1e-6,30.92628 c 0,0 1e-6,-2.209022 0,0 -1e-6,2.209022 1.913051,3.313504 1.913051,3.313504 l 26.782718,15.462771 c 0,0 -1.913054,-1.104487 0,0 1.913052,1.104485 3.826103,0 3.826103,0 L 78.695814,68.776661 c 0,0 -1.913057,1.104482 0,0 1.913053,-1.104482 1.913051,-3.313504 1.913051,-3.313504 v -30.92628 c 0,0 -3e-6,2.209019 0,0 2e-6,-2.209019 -1.913051,-3.313531 -1.913051,-3.313531 L 51.913091,15.760208 c 0,0 1.913048,1.10451 0,0 -1.913049,-1.10451 -3.826103,-1e-6 -3.826103,-1e-6 z"
       id="path37" /><path
       style="opacity:1;fill:#4d94e2;fill-opacity:1;stroke:none;stroke-width:0.0259457;stroke-dasharray:none;stroke-dashoffset:0;stroke-opacity:0"
       d="M 30.258193,34.427862 50.000005,23.029925 69.74181,34.427862 74.29761,31.797572 50.000005,17.76934 25.702399,31.797572 Z"
       id="path77" /><g
       id="g94"
       style="display:none"><path
         style="opacity:0.928571;fill:#5093df;fill-opacity:1;stroke:#ffffff;stroke-width:0.0878041;stroke-dasharray:0.526823, 0.0878041;stroke-dashoffset:0;stroke-opacity:1"
         d="m 123.47079,137.91542 7.10945,4.10464 v 8.20928 l -7.10945,-4.10464 z"
         id="path92" /><path
         style="opacity:0.928571;fill:#5093df;fill-opacity:1;stroke:#ffffff;stroke-width:0.0878041;stroke-dasharray:0.526823, 0.0878041;stroke-dashoffset:0;stroke-opacity:1"
         d="m 123.47079,126.70365 7.10945,4.10464 v 8.20929 l -7.10945,-4.10465 z"
         id="path92-7" /><path
         style="opacity:0.928571;fill:#5093df;fill-opacity:1;stroke:#ffffff;stroke-width:0.0878041;stroke-dasharray:0.526823, 0.0878041;stroke-dashoffset:0;stroke-opacity:1"
         d="m 114.88227,132.86086 7.10943,4.10464 v 8.20929 l -7.10943,-4.10464 z"
         id="path92-4" /><path
         style="opacity:0.928571;fill:#5093df;fill-opacity:1;stroke:#ffffff;stroke-width:0.0878041;stroke-dasharray:0.526823, 0.0878041;stroke-dashoffset:0;stroke-opacity:1"
         d="m 114.88227,121.64909 7.10943,4.10464 v 8.20929 l -7.10943,-4.10465 z"
         id="path92-7-1" /><path
         style="opacity:0.928571;fill:#5093df;fill-opacity:1;stroke:#ffffff;stroke-width:0.0878041;stroke-dasharray:0.526823, 0.0878041;stroke-dashoffset:0;stroke-opacity:1"
         d="m 132.05933,131.75821 7.10943,4.10464 v 8.20927 l -7.10942,-4.10463 z"
         id="path92-7-3" /><path
         style="opacity:0.928571;fill:#5093df;fill-opacity:1;stroke:#ffffff;stroke-width:0.0878041;stroke-dasharray:0.526823, 0.0878041;stroke-dashoffset:0;stroke-opacity:1"
         d="m 132.05933,142.96998 7.10943,4.10463 v 8.20928 l -7.10943,-4.10464 z"
         id="path92-7-3-8" /></g><path
       style="opacity:1;fill:#fa5333;fill-opacity:1;stroke:none;stroke-width:0.0259457;stroke-dasharray:none;stroke-dashoffset:0;stroke-opacity:0"
       d="m 28.723113,64.388428 c 0,-2.767301 2.396552,-1.38364 2.396552,-1.38364 0,0 -2.396552,-1.383661 0,0 2.396553,1.38364 2.396553,4.150941 2.396553,4.150941 0,0 0,-2.767301 0,0 0,2.767302 -2.396553,1.383648 -2.396553,1.383648 0,0 2.396553,1.383654 0,0 -2.396552,-1.383648 -2.396552,-4.150949 -2.396552,-4.150949 z"
       id="path93" /><path
       style="opacity:1;fill:#fab600;fill-opacity:1;stroke:none;stroke-width:0.0259457;stroke-dasharray:none;stroke-dashoffset:0;stroke-opacity:0"
       d="m 28.723113,54.074527 c 0,-2.7673 2.396552,-1.383646 2.396552,-1.383646 0,0 -2.396552,-1.383654 0,0 2.396553,1.383646 2.396553,4.150948 2.396553,4.150948 0,0 0,-2.767302 0,0 0,2.767301 -2.396553,1.383646 -2.396553,1.383646 0,0 2.396553,1.383655 0,0 -2.396552,-1.383646 -2.396552,-4.150948 -2.396552,-4.150948 z"
       id="path93-6" /><path
       style="opacity:1;fill:#fa5333;fill-opacity:1;stroke:none;stroke-width:0.0259457;stroke-dasharray:none;stroke-dashoffset:0;stroke-opacity:0"
       d="m 22.543647,60.591519 c 0,-2.767301 2.396545,-1.383639 2.396545,-1.383639 0,0 -2.396545,-1.383662 0,0 2.396545,1.383639 2.396545,4.150947 2.396545,4.150947 0,0 0,-2.767308 0,0 0,2.767294 -2.396545,1.383648 -2.396545,1.383648 0,0 2.396545,1.383646 0,0 -2.396545,-1.383648 -2.396545,-4.150956 -2.396545,-4.150956 z"
       id="path93-1" /><path
       style="opacity:1;fill:#fab600;fill-opacity:1;stroke:none;stroke-width:0.0259457;stroke-dasharray:none;stroke-dashoffset:0;stroke-opacity:0"
       d="m 22.543647,50.277617 c 0,-2.7673 2.396552,-1.383646 2.396552,-1.383646 0,0 -2.396552,-1.383654 0,0 2.396538,1.383646 2.396538,4.150948 2.396538,4.150948 0,0 0,-2.767302 0,0 0,2.767302 -2.396538,1.383654 -2.396538,1.383654 0,0 2.396538,1.383648 0,0 -2.396552,-1.383654 -2.396552,-4.150956 -2.396552,-4.150956 z"
       id="path93-6-3" /><path
       style="opacity:1;fill:#fab600;fill-opacity:1;stroke:none;stroke-width:0.0259457;stroke-dasharray:none;stroke-dashoffset:0;stroke-opacity:0"
       d="m 34.902587,57.871436 c 0,-2.767293 2.396545,-1.383646 2.396545,-1.383646 0,0 -2.396545,-1.383647 0,0 2.396546,1.383646 2.396546,4.150948 2.396546,4.150948 0,0 0,-2.767302 0,0 0,2.767293 -2.396546,1.38364 -2.396546,1.38364 0,0 2.396546,1.383661 0,0 -2.396545,-1.38364 -2.396545,-4.150942 -2.396545,-4.150942 z"
       id="path93-6-2" /><path
       style="opacity:1;fill:#fa5333;fill-opacity:1;stroke:none;stroke-width:0.0259457;stroke-dasharray:none;stroke-dashoffset:0;stroke-opacity:0"
       d="m 34.902587,68.18533 c 0,-2.767286 2.396538,-1.383647 2.396538,-1.383647 0,0 -2.396538,-1.383646 0,0 2.396553,1.383647 2.396553,4.150949 2.396553,4.150949 0,0 0,-2.767302 0,0 0,2.767301 -2.396553,1.383653 -2.396553,1.383653 0,0 2.396553,1.383648 0,0 -2.396538,-1.383653 -2.396538,-4.150955 -2.396538,-4.150955 z"
       id="path93-6-2-5" /><path
       style="opacity:1;fill:#006fff;fill-opacity:1;stroke:none;stroke-width:0.0231484;stroke-dasharray:none;stroke-dashoffset:0;stroke-opacity:0"
       d="m 37.801245,33.637737 c -3.311158,1.911712 -3.311151,1.911712 0,3.823418 3.311151,1.911707 3.311151,1.911707 6.622309,0 3.311157,-1.911706 3.311157,-1.911713 0,-3.823418 -3.311158,-1.911713 -3.311151,-1.911713 -6.622309,0 z"
       id="path94" /><path
       style="opacity:1;fill:#ff0067;fill-opacity:1;stroke:none;stroke-width:0.0231484;stroke-dasharray:none;stroke-dashoffset:0;stroke-opacity:0"
       d="m 46.688855,28.243491 c -3.311158,1.911712 -3.311151,1.911712 0,3.823419 3.311151,1.911705 3.311151,1.911705 6.622308,0 3.311158,-1.911707 3.311158,-1.911713 0,-3.823419 -3.311157,-1.91171 -3.311151,-1.91171 -6.622308,0 z"
       id="path94-8" /><path
       style="opacity:1;fill:#006fff;fill-opacity:1;stroke:none;stroke-width:0.0231484;stroke-dasharray:none;stroke-dashoffset:0;stroke-opacity:0"
       d="m 55.576471,33.637744 c -3.311158,1.911711 -3.311152,1.911711 0,3.823411 3.311151,1.911707 3.311151,1.911707 6.622309,0 3.311157,-1.9117 3.311157,-1.911706 0,-3.823411 -3.311158,-1.911714 -3.311151,-1.911714 -6.622309,0 z"
       id="path94-8-9" /><path
       style="opacity:1;fill:#00c077;fill-opacity:1;stroke:none;stroke-width:0.0220644;stroke-linecap:butt;stroke-linejoin:miter;stroke-dasharray:none;stroke-dashoffset:0;stroke-opacity:1;paint-order:stroke markers fill"
       d="m 56.105564,52.500248 0.01603,15.029424 4.459292,-2.574506 V 49.916431 Z"
       id="path106-42"
       sodipodi:nodetypes="ccccc" /><path
       style="opacity:1;fill:#52a905;fill-opacity:1;stroke:none;stroke-width:0.0220644;stroke-linecap:butt;stroke-linejoin:miter;stroke-dasharray:none;stroke-dashoffset:0;stroke-opacity:1;paint-order:stroke markers fill"
       d="m 70.036468,44.123253 0.01604,15.029425 4.459292,-2.574499 V 41.539444 Z"
       id="path106-42-9-8"
       sodipodi:nodetypes="ccccc" /><path
       style="opacity:1;fill:#2da749;fill-opacity:1;stroke:none;stroke-width:0.0220644;stroke-linecap:butt;stroke-linejoin:miter;stroke-dasharray:none;stroke-dashoffset:0;stroke-opacity:1;paint-order:stroke markers fill"
       d="m 63.067427,48.316328 0.01603,15.039824 4.4593,-2.584861 V 45.732497 Z"
       id="path106-42-4-1"
       sodipodi:nodetypes="ccccc" /><path
       style="opacity:1;fill:#ff0067;fill-opacity:1;stroke:none;stroke-width:0.0231484;stroke-dasharray:none;stroke-dashoffset:0;stroke-opacity:0"
       d="m 46.688848,39.032009 c -3.311157,1.911712 -3.311151,1.911712 0,3.823412 3.311152,1.911706 3.311152,1.911706 6.622309,0 3.311157,-1.9117 3.311157,-1.911706 0,-3.823412 -3.311157,-1.911719 -3.311151,-1.911719 -6.622309,0 z"
       id="path94-8-9-1" /><path
       style="opacity:1;fill:#f79235;fill-opacity:1;stroke:none;stroke-width:0.0259457;stroke-linecap:butt;stroke-linejoin:round;stroke-dasharray:none;stroke-dashoffset:0;stroke-opacity:0;paint-order:stroke markers fill"
       d="m 24.565736,38.649643 c -2.310038,-1.333693 -2.309966,1.34894 -2.309966,1.34894 0,0 -7.2e-5,-2.682642 0,0 7.4e-5,2.682642 2.314842,4.018881 2.314842,4.018881 l 15.63225,8.980769 c 0,0 -2.274568,-1.344904 0,0 2.274568,1.344901 2.321881,4.025557 2.321881,4.025557 l -0.04737,17.999605 c 0,0 -7.4e-5,-2.682642 0,0 7.3e-5,2.682641 2.314842,4.018879 2.314842,4.018879 0,0 -2.314769,-1.336238 0.01978,0.01161 2.334567,1.347868 2.297205,-1.353889 2.297205,-1.353889 l 0.04251,-23.367424 c 0,0 0.0052,2.685179 0,0 -0.0052,-2.68518 -2.321882,-4.025559 -2.321882,-4.025559 z"
       id="path103" /><path
       style="opacity:1;fill:#52c077;fill-opacity:1;stroke:none;stroke-width:0.0230516;stroke-linecap:butt;stroke-linejoin:miter;stroke-dasharray:none;stroke-dashoffset:0;stroke-opacity:1;paint-order:stroke markers fill"
       d="m 56.117626,70.619783 -0.01207,3.988433 18.415841,-10.632375 -0.0066,-3.979915 z"
       id="path120"
       sodipodi:nodetypes="ccccc" /></g></svg>
